<?xml version="1.0" encoding="UTF-8" standalone="no"?>
<svg
   width="397.44925pt"
   height="254.6301pt"
   viewBox="0 0 397.44925 254.6301"
   version="1.1"
   id="svg1703"
   sodipodi:docname="noise-resist.svg"
   inkscape:version="1.1.2 (0a00cf5339, 2022-02-04)"
   xmlns:inkscape="http://www.inkscape.org/namespaces/inkscape"
   xmlns:sodipodi="http://sodipodi.sourceforge.net/DTD/sodipodi-0.dtd"
   xmlns:xlink="http://www.w3.org/1999/xlink"
   xmlns="http://www.w3.org/2000/svg"
   xmlns:svg="http://www.w3.org/2000/svg"
   xmlns:rdf="http://www.w3.org/1999/02/22-rdf-syntax-ns#"
   xmlns:cc="http://creativecommons.org/ns#"
   xmlns:dc="http://purl.org/dc/elements/1.1/">
  <sodipodi:namedview
     id="namedview1705"
     pagecolor="#ffffff"
     bordercolor="#999999"
     borderopacity="1"
     inkscape:pageshadow="0"
     inkscape:pageopacity="0"
     inkscape:pagecheckerboard="true"
     inkscape:document-units="pt"
     showgrid="false"
     inkscape:snap-nodes="false"
     inkscape:zoom="1.330637"
     inkscape:cx="278.06231"
     inkscape:cy="170.59498"
     inkscape:window-width="1920"
     inkscape:window-height="1140"
     inkscape:window-x="0"
     inkscape:window-y="28"
     inkscape:window-maximized="1"
     inkscape:current-layer="svg1703"
     inkscape:snap-page="true"
     fit-margin-top="0"
     fit-margin-left="0"
     fit-margin-right="0"
     fit-margin-bottom="0"
     inkscape:snap-global="true"
     inkscape:snap-bbox="false"
     inkscape:snap-grids="false"
     inkscape:snap-to-guides="false" />
  <metadata
     id="metadata891">
    <rdf:RDF>
      <cc:Work>
        <dc:type
           rdf:resource="http://purl.org/dc/dcmitype/StillImage" />
        <dc:date>2023-10-19T23:25:37.867400</dc:date>
        <dc:format>image/svg+xml</dc:format>
        <dc:creator>
          <cc:Agent>
            <dc:title>Matplotlib v3.5.2, https://matplotlib.org/</dc:title>
          </cc:Agent>
        </dc:creator>
      </cc:Work>
    </rdf:RDF>
  </metadata>
  <defs
     id="defs895">
    <style
       type="text/css"
       id="style893">*{stroke-linejoin: round; stroke-linecap: butt}</style>
  </defs>
  <rect
     style="fill:#ffffff;stroke-width:1.85;stroke:none"
     id="rect1243"
     width="398.61963"
     height="256.08502"
     x="0.24815771"
     y="0.01155902" />
  <path
     d="m 36.58125,103.91866 h 360.468 V 3.622656 h -360.468 z"
     style="fill:#ffffff"
     id="path900" />
  <g
     id="xtick_1"
     transform="translate(-21.558749,-30.764544)">
    <g
       id="line2d_1">
      <defs
         id="defs904">
        <path
           id="m4cfd93e380"
           d="M 0,0 V 3.5"
           style="stroke:#000000;stroke-width:0.8" />
      </defs>
      <g
         id="g908">
        <use
           xlink:href="#m4cfd93e380"
           x="58.139999"
           y="134.6832"
           style="stroke:#000000;stroke-width:0.8"
           id="use906"
           width="100%"
           height="100%" />
      </g>
    </g>
    <g
       id="text_1">
      <!-- 0 -->
      <g
         transform="matrix(0.1,0,0,-0.1,54.95875,149.28164)"
         id="g916">
        <defs
           id="defs912">
          <path
             id="DejaVuSans-30"
             d="m 2034,4250 q -487,0 -733,-480 -245,-479 -245,-1442 0,-959 245,-1439 246,-480 733,-480 491,0 736,480 246,480 246,1439 0,963 -246,1442 -245,480 -736,480 z m 0,500 q 785,0 1199,-621 414,-620 414,-1801 0,-1178 -414,-1799 -414,-620 -1199,-620 -784,0 -1198,620 -414,621 -414,1799 0,1181 414,1801 414,621 1198,621 z"
             transform="scale(0.015625)" />
        </defs>
        <use
           xlink:href="#DejaVuSans-30"
           id="use914"
           x="0"
           y="0"
           width="100%"
           height="100%" />
      </g>
    </g>
  </g>
  <g
     id="xtick_2"
     transform="translate(-21.558749,-30.764544)">
    <g
       id="line2d_2">
      <g
         id="g922">
        <use
           xlink:href="#m4cfd93e380"
           x="114.46313"
           y="134.6832"
           style="stroke:#000000;stroke-width:0.8"
           id="use920"
           width="100%"
           height="100%" />
      </g>
    </g>
    <g
       id="text_2">
      <!-- 5 -->
      <g
         transform="matrix(0.1,0,0,-0.1,111.28188,149.28164)"
         id="g930">
        <defs
           id="defs926">
          <path
             id="DejaVuSans-35"
             d="M 691,4666 H 3169 V 4134 H 1269 V 2991 q 137,47 274,70 138,23 276,23 781,0 1237,-428 457,-428 457,-1159 Q 3513,744 3044,326 2575,-91 1722,-91 1428,-91 1123,-41 819,9 494,109 v 635 q 281,-153 581,-228 300,-75 634,-75 541,0 856,284 316,284 316,772 0,487 -316,771 -315,285 -856,285 -253,0 -505,-56 -251,-56 -513,-175 z"
             transform="scale(0.015625)" />
        </defs>
        <use
           xlink:href="#DejaVuSans-35"
           id="use928"
           x="0"
           y="0"
           width="100%"
           height="100%" />
      </g>
    </g>
  </g>
  <g
     id="xtick_3"
     transform="translate(-21.558749,-30.764544)">
    <g
       id="line2d_3">
      <g
         id="g936">
        <use
           xlink:href="#m4cfd93e380"
           x="170.78625"
           y="134.6832"
           style="stroke:#000000;stroke-width:0.8"
           id="use934"
           width="100%"
           height="100%" />
      </g>
    </g>
    <g
       id="text_3">
      <!-- 10 -->
      <g
         transform="matrix(0.1,0,0,-0.1,164.42375,149.28164)"
         id="g946">
        <defs
           id="defs940">
          <path
             id="DejaVuSans-31"
             d="M 794,531 H 1825 V 4091 L 703,3866 v 575 l 1116,225 h 631 V 531 H 3481 V 0 H 794 Z"
             transform="scale(0.015625)" />
        </defs>
        <use
           xlink:href="#DejaVuSans-31"
           id="use942"
           x="0"
           y="0"
           width="100%"
           height="100%" />
        <use
           xlink:href="#DejaVuSans-30"
           x="63.623047"
           id="use944"
           y="0"
           width="100%"
           height="100%" />
      </g>
    </g>
  </g>
  <g
     id="xtick_4"
     transform="translate(-21.558749,-30.764544)">
    <g
       id="line2d_4">
      <g
         id="g952">
        <use
           xlink:href="#m4cfd93e380"
           x="227.10938"
           y="134.6832"
           style="stroke:#000000;stroke-width:0.8"
           id="use950"
           width="100%"
           height="100%" />
      </g>
    </g>
    <g
       id="text_4">
      <!-- 15 -->
      <g
         transform="matrix(0.1,0,0,-0.1,220.74687,149.28164)"
         id="g959">
        <use
           xlink:href="#DejaVuSans-31"
           id="use955"
           x="0"
           y="0"
           width="100%"
           height="100%" />
        <use
           xlink:href="#DejaVuSans-35"
           x="63.623047"
           id="use957"
           y="0"
           width="100%"
           height="100%" />
      </g>
    </g>
  </g>
  <g
     id="xtick_5"
     transform="translate(-21.558749,-30.764544)">
    <g
       id="line2d_5">
      <g
         id="g965">
        <use
           xlink:href="#m4cfd93e380"
           x="283.4325"
           y="134.6832"
           style="stroke:#000000;stroke-width:0.8"
           id="use963"
           width="100%"
           height="100%" />
      </g>
    </g>
    <g
       id="text_5">
      <!-- 20 -->
      <g
         transform="matrix(0.1,0,0,-0.1,277.07,149.28164)"
         id="g975">
        <defs
           id="defs969">
          <path
             id="DejaVuSans-32"
             d="M 1228,531 H 3431 V 0 H 469 v 531 q 359,372 979,998 621,627 780,809 303,340 423,576 121,236 121,464 0,372 -261,606 -261,235 -680,235 -297,0 -627,-103 -329,-103 -704,-313 v 638 q 381,153 712,231 332,78 607,78 725,0 1156,-363 431,-362 431,-968 0,-288 -108,-546 -107,-257 -392,-607 -78,-91 -497,-524 Q 1991,1309 1228,531 Z"
             transform="scale(0.015625)" />
        </defs>
        <use
           xlink:href="#DejaVuSans-32"
           id="use971"
           x="0"
           y="0"
           width="100%"
           height="100%" />
        <use
           xlink:href="#DejaVuSans-30"
           x="63.623047"
           id="use973"
           y="0"
           width="100%"
           height="100%" />
      </g>
    </g>
  </g>
  <g
     id="xtick_6"
     transform="translate(-21.558749,-30.764544)">
    <g
       id="line2d_6">
      <g
         id="g981">
        <use
           xlink:href="#m4cfd93e380"
           x="339.75562"
           y="134.6832"
           style="stroke:#000000;stroke-width:0.8"
           id="use979"
           width="100%"
           height="100%" />
      </g>
    </g>
    <g
       id="text_6">
      <!-- 25 -->
      <g
         transform="matrix(0.1,0,0,-0.1,333.39312,149.28164)"
         id="g988">
        <use
           xlink:href="#DejaVuSans-32"
           id="use984"
           x="0"
           y="0"
           width="100%"
           height="100%" />
        <use
           xlink:href="#DejaVuSans-35"
           x="63.623047"
           id="use986"
           y="0"
           width="100%"
           height="100%" />
      </g>
    </g>
  </g>
  <g
     id="xtick_7"
     transform="translate(-21.558749,-30.764544)">
    <g
       id="line2d_7">
      <g
         id="g994">
        <use
           xlink:href="#m4cfd93e380"
           x="396.07874"
           y="134.6832"
           style="stroke:#000000;stroke-width:0.8"
           id="use992"
           width="100%"
           height="100%" />
      </g>
    </g>
    <g
       id="text_7">
      <!-- 30 -->
      <g
         transform="matrix(0.1,0,0,-0.1,389.71625,149.28164)"
         id="g1004">
        <defs
           id="defs998">
          <path
             id="DejaVuSans-33"
             d="m 2597,2516 q 453,-97 707,-404 255,-306 255,-756 0,-690 -475,-1069 -475,-378 -1350,-378 -293,0 -604,58 -311,58 -642,174 v 609 q 262,-153 574,-231 313,-78 654,-78 593,0 904,234 311,234 311,681 0,413 -289,645 -289,233 -804,233 h -544 v 519 h 569 q 465,0 712,186 247,186 247,536 0,359 -255,551 -254,193 -729,193 -260,0 -557,-57 -297,-56 -653,-174 v 562 q 360,100 674,150 314,50 592,50 719,0 1137,-327 419,-326 419,-882 0,-388 -222,-655 -222,-267 -631,-370 z"
             transform="scale(0.015625)" />
        </defs>
        <use
           xlink:href="#DejaVuSans-33"
           id="use1000"
           x="0"
           y="0"
           width="100%"
           height="100%" />
        <use
           xlink:href="#DejaVuSans-30"
           x="63.623047"
           id="use1002"
           y="0"
           width="100%"
           height="100%" />
      </g>
    </g>
  </g>
  <g
     id="ytick_1"
     transform="translate(-21.558749,-30.764544)">
    <g
       id="line2d_8">
      <defs
         id="defs1010">
        <path
           id="m499e278b55"
           d="M 0,0 H -3.5"
           style="stroke:#000000;stroke-width:0.8" />
      </defs>
      <g
         id="g1014">
        <use
           xlink:href="#m499e278b55"
           x="58.139999"
           y="134.6832"
           style="stroke:#000000;stroke-width:0.8"
           id="use1012"
           width="100%"
           height="100%" />
      </g>
    </g>
    <g
       id="text_8">
      <!-- 0.0 -->
      <g
         transform="matrix(0.1,0,0,-0.1,35.236875,138.48242)"
         id="g1026">
        <defs
           id="defs1018">
          <path
             id="DejaVuSans-2e"
             d="m 684,794 h 660 V 0 H 684 Z"
             transform="scale(0.015625)" />
        </defs>
        <use
           xlink:href="#DejaVuSans-30"
           id="use1020"
           x="0"
           y="0"
           width="100%"
           height="100%" />
        <use
           xlink:href="#DejaVuSans-2e"
           x="63.623047"
           id="use1022"
           y="0"
           width="100%"
           height="100%" />
        <use
           xlink:href="#DejaVuSans-30"
           x="95.410156"
           id="use1024"
           y="0"
           width="100%"
           height="100%" />
      </g>
    </g>
  </g>
  <g
     id="ytick_2"
     transform="translate(-21.558749,-30.764544)">
    <g
       id="line2d_9">
      <g
         id="g1032">
        <use
           xlink:href="#m499e278b55"
           x="58.139999"
           y="109.6092"
           style="stroke:#000000;stroke-width:0.8"
           id="use1030"
           width="100%"
           height="100%" />
      </g>
    </g>
    <g
       id="text_9">
      <!-- 0.5 -->
      <g
         transform="matrix(0.1,0,0,-0.1,35.236875,113.40842)"
         id="g1041">
        <use
           xlink:href="#DejaVuSans-30"
           id="use1035"
           x="0"
           y="0"
           width="100%"
           height="100%" />
        <use
           xlink:href="#DejaVuSans-2e"
           x="63.623047"
           id="use1037"
           y="0"
           width="100%"
           height="100%" />
        <use
           xlink:href="#DejaVuSans-35"
           x="95.410156"
           id="use1039"
           y="0"
           width="100%"
           height="100%" />
      </g>
    </g>
  </g>
  <g
     id="ytick_3"
     transform="translate(-21.558749,-30.764544)">
    <g
       id="line2d_10">
      <g
         id="g1047">
        <use
           xlink:href="#m499e278b55"
           x="58.139999"
           y="84.535202"
           style="stroke:#000000;stroke-width:0.8"
           id="use1045"
           width="100%"
           height="100%" />
      </g>
    </g>
    <g
       id="text_10">
      <!-- 1.0 -->
      <g
         transform="matrix(0.1,0,0,-0.1,35.236875,88.334419)"
         id="g1056">
        <use
           xlink:href="#DejaVuSans-31"
           id="use1050"
           x="0"
           y="0"
           width="100%"
           height="100%" />
        <use
           xlink:href="#DejaVuSans-2e"
           x="63.623047"
           id="use1052"
           y="0"
           width="100%"
           height="100%" />
        <use
           xlink:href="#DejaVuSans-30"
           x="95.410156"
           id="use1054"
           y="0"
           width="100%"
           height="100%" />
      </g>
    </g>
  </g>
  <g
     id="ytick_4"
     transform="translate(-21.558749,-30.764544)">
    <g
       id="line2d_11">
      <g
         id="g1062">
        <use
           xlink:href="#m499e278b55"
           x="58.139999"
           y="59.461201"
           style="stroke:#000000;stroke-width:0.8"
           id="use1060"
           width="100%"
           height="100%" />
      </g>
    </g>
    <g
       id="text_11">
      <!-- 1.5 -->
      <g
         transform="matrix(0.1,0,0,-0.1,35.236875,63.260419)"
         id="g1071">
        <use
           xlink:href="#DejaVuSans-31"
           id="use1065"
           x="0"
           y="0"
           width="100%"
           height="100%" />
        <use
           xlink:href="#DejaVuSans-2e"
           x="63.623047"
           id="use1067"
           y="0"
           width="100%"
           height="100%" />
        <use
           xlink:href="#DejaVuSans-35"
           x="95.410156"
           id="use1069"
           y="0"
           width="100%"
           height="100%" />
      </g>
    </g>
  </g>
  <g
     id="ytick_5"
     transform="translate(-21.558749,-30.764544)">
    <g
       id="line2d_12">
      <g
         id="g1077">
        <use
           xlink:href="#m499e278b55"
           x="58.139999"
           y="34.387199"
           style="stroke:#000000;stroke-width:0.8"
           id="use1075"
           width="100%"
           height="100%" />
      </g>
    </g>
    <g
       id="text_12">
      <!-- 2.0 -->
      <g
         transform="matrix(0.1,0,0,-0.1,35.236875,38.186419)"
         id="g1086">
        <use
           xlink:href="#DejaVuSans-32"
           id="use1080"
           x="0"
           y="0"
           width="100%"
           height="100%" />
        <use
           xlink:href="#DejaVuSans-2e"
           x="63.623047"
           id="use1082"
           y="0"
           width="100%"
           height="100%" />
        <use
           xlink:href="#DejaVuSans-30"
           x="95.410156"
           id="use1084"
           y="0"
           width="100%"
           height="100%" />
      </g>
    </g>
  </g>
  <g
     id="text_13"
     transform="translate(-21.558749,-30.764544)">
    <!-- rot spread -->
    <g
       transform="matrix(0,-0.1,-0.1,0,29.157187,110.12348)"
       id="g1121">
      <defs
         id="defs1099">
        <path
           id="DejaVuSans-72"
           d="m 2631,2963 q -97,56 -211,82 -114,27 -251,27 -488,0 -749,-317 -261,-317 -261,-911 V 0 H 581 v 3500 h 578 v -544 q 182,319 472,473 291,155 707,155 59,0 131,-8 72,-7 159,-23 z"
           transform="scale(0.015625)" />
        <path
           id="DejaVuSans-6f"
           d="m 1959,3097 q -462,0 -731,-361 -269,-361 -269,-989 0,-628 267,-989 268,-361 733,-361 460,0 728,362 269,363 269,988 0,622 -269,986 -268,364 -728,364 z m 0,487 q 750,0 1178,-488 429,-487 429,-1349 Q 3566,888 3137,398 2709,-91 1959,-91 1206,-91 779,398 353,888 353,1747 q 0,862 426,1349 427,488 1180,488 z"
           transform="scale(0.015625)" />
        <path
           id="DejaVuSans-74"
           d="M 1172,4494 V 3500 H 2356 V 3053 H 1172 V 1153 q 0,-428 117,-550 117,-122 477,-122 h 590 V 0 H 1766 Q 1100,0 847,248 594,497 594,1153 V 3053 H 172 v 447 h 422 v 994 z"
           transform="scale(0.015625)" />
        <path
           id="DejaVuSans-20"
           transform="scale(0.015625)"
           d="" />
        <path
           id="DejaVuSans-73"
           d="m 2834,3397 v -544 q -243,125 -506,187 -262,63 -544,63 -428,0 -642,-131 -214,-131 -214,-394 0,-200 153,-314 153,-114 616,-217 l 197,-44 q 612,-131 870,-370 258,-239 258,-667 0,-488 -386,-773 Q 2250,-91 1575,-91 1294,-91 989,-36 684,19 347,128 v 594 q 319,-166 628,-249 309,-82 613,-82 406,0 624,139 219,139 219,392 0,234 -158,359 -157,125 -692,241 l -200,47 q -534,112 -772,345 -237,233 -237,639 0,494 350,762 350,269 994,269 318,0 599,-47 282,-46 519,-140 z"
           transform="scale(0.015625)" />
        <path
           id="DejaVuSans-70"
           d="M 1159,525 V -1331 H 581 v 4831 h 578 v -531 q 182,312 458,463 277,152 661,152 638,0 1036,-506 399,-506 399,-1331 0,-825 -399,-1332 -398,-506 -1036,-506 -384,0 -661,152 -276,152 -458,464 z m 1957,1222 q 0,634 -261,995 -261,361 -717,361 -457,0 -718,-361 -261,-361 -261,-995 0,-634 261,-995 261,-361 718,-361 456,0 717,361 261,361 261,995 z"
           transform="scale(0.015625)" />
        <path
           id="DejaVuSans-65"
           d="M 3597,1894 V 1613 H 953 q 38,-594 358,-905 320,-311 892,-311 331,0 642,81 311,81 618,244 V 178 Q 3153,47 2828,-22 2503,-91 2169,-91 1331,-91 842,396 353,884 353,1716 q 0,859 464,1363 464,505 1252,505 706,0 1117,-455 411,-454 411,-1235 z m -575,169 q -6,471 -264,752 -258,282 -683,282 -481,0 -770,-272 -289,-272 -333,-766 z"
           transform="scale(0.015625)" />
        <path
           id="DejaVuSans-61"
           d="m 2194,1759 q -697,0 -966,-159 -269,-159 -269,-544 0,-306 202,-486 202,-179 548,-179 479,0 768,339 289,339 289,901 v 128 z m 1147,238 V 0 H 2766 V 531 Q 2569,213 2275,61 1981,-91 1556,-91 q -537,0 -855,302 -317,302 -317,808 0,590 395,890 396,300 1180,300 h 807 v 57 q 0,397 -261,614 -261,217 -733,217 -300,0 -585,-72 -284,-72 -546,-216 v 532 q 315,122 612,182 297,61 578,61 760,0 1135,-394 375,-393 375,-1193 z"
           transform="scale(0.015625)" />
        <path
           id="DejaVuSans-64"
           d="m 2906,2969 v 1894 h 575 V 0 H 2906 V 525 Q 2725,213 2448,61 2172,-91 1784,-91 1150,-91 751,415 353,922 353,1747 q 0,825 398,1331 399,506 1033,506 388,0 664,-152 277,-151 458,-463 z M 947,1747 q 0,-634 261,-995 261,-361 717,-361 456,0 718,361 263,361 263,995 0,634 -263,995 -262,361 -718,361 -456,0 -717,-361 -261,-361 -261,-995 z"
           transform="scale(0.015625)" />
      </defs>
      <use
         xlink:href="#DejaVuSans-72"
         id="use1101"
         x="0"
         y="0"
         width="100%"
         height="100%" />
      <use
         xlink:href="#DejaVuSans-6f"
         x="38.863281"
         id="use1103"
         y="0"
         width="100%"
         height="100%" />
      <use
         xlink:href="#DejaVuSans-74"
         x="100.04492"
         id="use1105"
         y="0"
         width="100%"
         height="100%" />
      <use
         xlink:href="#DejaVuSans-20"
         x="139.25391"
         id="use1107"
         y="0"
         width="100%"
         height="100%" />
      <use
         xlink:href="#DejaVuSans-73"
         x="171.04102"
         id="use1109"
         y="0"
         width="100%"
         height="100%" />
      <use
         xlink:href="#DejaVuSans-70"
         x="223.14062"
         id="use1111"
         y="0"
         width="100%"
         height="100%" />
      <use
         xlink:href="#DejaVuSans-72"
         x="286.61719"
         id="use1113"
         y="0"
         width="100%"
         height="100%" />
      <use
         xlink:href="#DejaVuSans-65"
         x="325.48047"
         id="use1115"
         y="0"
         width="100%"
         height="100%" />
      <use
         xlink:href="#DejaVuSans-61"
         x="387.00391"
         id="use1117"
         y="0"
         width="100%"
         height="100%" />
      <use
         xlink:href="#DejaVuSans-64"
         x="448.2832"
         id="use1119"
         y="0"
         width="100%"
         height="100%" />
    </g>
  </g>
  <path
     d="M 69.404625,129.60909 148.257,106.20826 238.374,87.446216 418.608,62.852658"
     clip-path="url(#p4e88df2e3f)"
     style="fill:none;stroke:#1f77b4;stroke-width:1.5;stroke-linecap:square"
     id="path1125"
     transform="translate(-21.558749,-30.764544)" />
  <path
     d="M 69.404625,132.26534 148.257,117.27015 238.374,101.85225 418.608,75.639645"
     clip-path="url(#p4e88df2e3f)"
     style="fill:none;stroke:#ff7f0e;stroke-width:1.5;stroke-linecap:square"
     id="path1128"
     transform="translate(-21.558749,-30.764544)" />
  <path
     d="M 69.404625,131.75115 148.257,115.63105 238.374,98.81014 418.608,65.529714"
     clip-path="url(#p4e88df2e3f)"
     style="fill:none;stroke:#2ca02c;stroke-width:1.5;stroke-linecap:square"
     id="path1131"
     transform="translate(-21.558749,-30.764544)" />
  <path
     d="M 36.58125,103.91866 V 3.622656"
     style="fill:none;stroke:#000000;stroke-width:0.8;stroke-linecap:square;stroke-linejoin:miter"
     id="path1134" />
  <path
     d="M 397.04925,103.91866 V 3.622656"
     style="fill:none;stroke:#000000;stroke-width:0.8;stroke-linecap:square;stroke-linejoin:miter"
     id="path1137" />
  <path
     d="m 36.58125,103.91866 h 360.468"
     style="fill:none;stroke:#000000;stroke-width:0.8;stroke-linecap:square;stroke-linejoin:miter"
     id="path1140" />
  <path
     d="m 36.58125,3.622656 h 360.468"
     style="fill:none;stroke:#000000;stroke-width:0.8;stroke-linecap:square;stroke-linejoin:miter"
     id="path1143" />
  <g
     id="patch_7"
     transform="matrix(0.58444886,0,0,1.0034184,-3.5654573,-30.980526)">
    <path
       d="M 80.564567,87.128315 H 240.73312 q 0.97111,0 0.97111,-2.012649 V 41.249359 q 0,-2.012649 -0.97111,-2.012649 H 80.564567 q -0.971119,0 -0.971119,2.012649 v 43.866307 q 0,2.012649 0.971119,2.012649 z"
       style="opacity:0.8;fill:#ffffff;stroke:#cccccc;stroke-width:0.699021;stroke-linejoin:miter"
       id="path1146" />
  </g>
  <g
     id="line2d_16"
     transform="translate(-36.558749,-30.764544)">
    <path
       d="m 83.743938,47.485637 h 10 10.000002"
       style="fill:none;stroke:#1f77b4;stroke-width:1.5;stroke-linecap:square"
       id="path1149" />
  </g>
  <g
     id="line2d_17"
     transform="translate(-36.558749,-30.764544)">
    <path
       d="m 83.743938,62.441888 h 10 10.000002"
       style="fill:none;stroke:#ff7f0e;stroke-width:1.5;stroke-linecap:square"
       id="path1278" />
  </g>
  <g
     id="line2d_18"
     transform="translate(-36.558749,-30.764544)">
    <path
       d="m 83.743938,77.398137 h 10 10.000002"
       style="fill:none;stroke:#2ca02c;stroke-width:1.5;stroke-linecap:square"
       id="path1385" />
  </g>
  <g
     id="text_16"
     transform="translate(-36.558749,-30.764544)">
    <!-- original-head-pose.onnx -->
    <g
       transform="matrix(0.1,0,0,-0.1,111.74394,80.898137)"
       id="g1437">
      <defs
         id="defs1389">
        <path
           id="DejaVuSans-2d"
           d="M 313,2009 H 1997 V 1497 H 313 Z"
           transform="scale(0.015625)" />
      </defs>
      <use
         xlink:href="#DejaVuSans-6f"
         id="use1391"
         x="0"
         y="0"
         width="100%"
         height="100%" />
      <use
         xlink:href="#DejaVuSans-72"
         x="61.181641"
         id="use1393"
         y="0"
         width="100%"
         height="100%" />
      <path
         id="use1395"
         d="m 111.7168,54.6875 h 8.98437 V 0 h -8.98437 z m 0,21.296875 h 8.98437 V 64.59375 h -8.98437 z"
         style="stroke-width:0.015625" />
      <path
         id="use1397"
         d="m 175.48437,27.984375 q 0,9.765625 -4.03125,15.125 -4.01562,5.375 -11.29687,5.375 -7.21875,0 -11.25,-5.375 -4.03125,-5.359375 -4.03125,-15.125 0,-9.71875 4.03125,-15.09375 4.03125,-5.375 11.25,-5.375 7.28125,0 11.29687,5.375 4.03125,5.375 4.03125,15.09375 z M 184.46875,6.78125 q 0,-13.953125 -6.20313,-20.765625 -6.1875,-6.8125 -18.98437,-6.8125 -4.73438,0 -8.9375,0.703125 -4.20313,0.703125 -8.15625,2.171875 V -9.1875 q 3.95312,-2.140625 7.8125,-3.15625 3.85937,-1.03125 7.85937,-1.03125 8.84375,0 13.23438,4.609375 4.39062,4.609375 4.39062,13.9375 V 9.625 Q 172.70312,4.78125 168.35937,2.390625 164.01562,0 157.95312,0 147.90625,0 141.75,7.65625 q -6.15625,7.671875 -6.15625,20.328125 0,12.6875 6.15625,20.34375 Q 147.90625,56 157.95312,56 q 6.0625,0 10.40625,-2.390625 4.34375,-2.390625 7.125,-7.21875 V 54.6875 h 8.98438 z"
         style="stroke-width:0.015625" />
      <path
         id="use1399"
         d="m 202.97656,54.6875 h 8.98438 V 0 h -8.98438 z m 0,21.296875 h 8.98438 V 64.59375 h -8.98438 z"
         style="stroke-width:0.015625" />
      <path
         id="use1401"
         d="M 276.22852,33.015625 V 0 h -8.98438 v 32.71875 q 0,7.765625 -3.03125,11.609375 -3.03125,3.859375 -9.07812,3.859375 -7.28125,0 -11.48438,-4.640625 -4.20312,-4.625 -4.20312,-12.640625 V 0 h -9.03125 v 54.6875 h 9.03125 v -8.5 q 3.23437,4.9375 7.59375,7.375 4.375,2.4375 10.09375,2.4375 9.42187,0 14.25,-5.828125 4.84375,-5.828125 4.84375,-17.15625 z"
         style="stroke-width:0.015625" />
      <use
         xlink:href="#DejaVuSans-61"
         x="284.7168"
         id="use1403"
         y="0"
         width="100%"
         height="100%" />
      <path
         id="use1405"
         d="m 355.41797,75.984375 h 8.98437 V 0 h -8.98437 z"
         style="stroke-width:0.015625" />
    </g>
  </g>
  <path
     d="m 36.58125,224.27386 h 360.468 v -100.296 h -360.468 z"
     style="fill:#ffffff"
     id="path1442" />
  <g
     id="xtick_8"
     transform="translate(-21.558749,-30.764544)">
    <g
       id="line2d_19">
      <g
         id="g1447">
        <use
           xlink:href="#m4cfd93e380"
           x="58.139999"
           y="255.03841"
           style="stroke:#000000;stroke-width:0.8"
           id="use1445"
           width="100%"
           height="100%" />
      </g>
    </g>
    <g
       id="text_17">
      <!-- 0 -->
      <g
         transform="matrix(0.1,0,0,-0.1,54.95875,269.63684)"
         id="g1452">
        <use
           xlink:href="#DejaVuSans-30"
           id="use1450"
           x="0"
           y="0"
           width="100%"
           height="100%" />
      </g>
    </g>
  </g>
  <g
     id="xtick_9"
     transform="translate(-21.558749,-30.764544)">
    <g
       id="line2d_20">
      <g
         id="g1458">
        <use
           xlink:href="#m4cfd93e380"
           x="114.46313"
           y="255.03841"
           style="stroke:#000000;stroke-width:0.8"
           id="use1456"
           width="100%"
           height="100%" />
      </g>
    </g>
    <g
       id="text_18">
      <!-- 5 -->
      <g
         transform="matrix(0.1,0,0,-0.1,111.28188,269.63684)"
         id="g1463">
        <use
           xlink:href="#DejaVuSans-35"
           id="use1461"
           x="0"
           y="0"
           width="100%"
           height="100%" />
      </g>
    </g>
  </g>
  <g
     id="xtick_10"
     transform="translate(-21.558749,-30.764544)">
    <g
       id="line2d_21">
      <g
         id="g1469">
        <use
           xlink:href="#m4cfd93e380"
           x="170.78625"
           y="255.03841"
           style="stroke:#000000;stroke-width:0.8"
           id="use1467"
           width="100%"
           height="100%" />
      </g>
    </g>
    <g
       id="text_19">
      <!-- 10 -->
      <g
         transform="matrix(0.1,0,0,-0.1,164.42375,269.63684)"
         id="g1476">
        <use
           xlink:href="#DejaVuSans-31"
           id="use1472"
           x="0"
           y="0"
           width="100%"
           height="100%" />
        <use
           xlink:href="#DejaVuSans-30"
           x="63.623047"
           id="use1474"
           y="0"
           width="100%"
           height="100%" />
      </g>
    </g>
  </g>
  <g
     id="xtick_11"
     transform="translate(-21.558749,-30.764544)">
    <g
       id="line2d_22">
      <g
         id="g1482">
        <use
           xlink:href="#m4cfd93e380"
           x="227.10938"
           y="255.03841"
           style="stroke:#000000;stroke-width:0.8"
           id="use1480"
           width="100%"
           height="100%" />
      </g>
    </g>
    <g
       id="text_20">
      <!-- 15 -->
      <g
         transform="matrix(0.1,0,0,-0.1,220.74687,269.63684)"
         id="g1489">
        <use
           xlink:href="#DejaVuSans-31"
           id="use1485"
           x="0"
           y="0"
           width="100%"
           height="100%" />
        <use
           xlink:href="#DejaVuSans-35"
           x="63.623047"
           id="use1487"
           y="0"
           width="100%"
           height="100%" />
      </g>
    </g>
  </g>
  <g
     id="xtick_12"
     transform="translate(-21.558749,-30.764544)">
    <g
       id="line2d_23">
      <g
         id="g1495">
        <use
           xlink:href="#m4cfd93e380"
           x="283.4325"
           y="255.03841"
           style="stroke:#000000;stroke-width:0.8"
           id="use1493"
           width="100%"
           height="100%" />
      </g>
    </g>
    <g
       id="text_21">
      <!-- 20 -->
      <g
         transform="matrix(0.1,0,0,-0.1,277.07,269.63684)"
         id="g1502">
        <use
           xlink:href="#DejaVuSans-32"
           id="use1498"
           x="0"
           y="0"
           width="100%"
           height="100%" />
        <use
           xlink:href="#DejaVuSans-30"
           x="63.623047"
           id="use1500"
           y="0"
           width="100%"
           height="100%" />
      </g>
    </g>
  </g>
  <g
     id="xtick_13"
     transform="translate(-21.558749,-30.764544)">
    <g
       id="line2d_24">
      <g
         id="g1508">
        <use
           xlink:href="#m4cfd93e380"
           x="339.75562"
           y="255.03841"
           style="stroke:#000000;stroke-width:0.8"
           id="use1506"
           width="100%"
           height="100%" />
      </g>
    </g>
    <g
       id="text_22">
      <!-- 25 -->
      <g
         transform="matrix(0.1,0,0,-0.1,333.39312,269.63684)"
         id="g1515">
        <use
           xlink:href="#DejaVuSans-32"
           id="use1511"
           x="0"
           y="0"
           width="100%"
           height="100%" />
        <use
           xlink:href="#DejaVuSans-35"
           x="63.623047"
           id="use1513"
           y="0"
           width="100%"
           height="100%" />
      </g>
    </g>
  </g>
  <g
     id="xtick_14"
     transform="translate(-21.558749,-30.764544)">
    <g
       id="line2d_25">
      <g
         id="g1521">
        <use
           xlink:href="#m4cfd93e380"
           x="396.07874"
           y="255.03841"
           style="stroke:#000000;stroke-width:0.8"
           id="use1519"
           width="100%"
           height="100%" />
      </g>
    </g>
    <g
       id="text_23">
      <!-- 30 -->
      <g
         transform="matrix(0.1,0,0,-0.1,389.71625,269.63684)"
         id="g1528">
        <use
           xlink:href="#DejaVuSans-33"
           id="use1524"
           x="0"
           y="0"
           width="100%"
           height="100%" />
        <use
           xlink:href="#DejaVuSans-30"
           x="63.623047"
           id="use1526"
           y="0"
           width="100%"
           height="100%" />
      </g>
    </g>
  </g>
  <g
     id="text_24"
     transform="translate(-21.558749,-30.764544)">
    <!-- input noise std -->
    <g
       transform="matrix(0.1,0,0,-0.1,201.29744,283.31496)"
       id="g1565">
      <defs
         id="defs1533">
        <path
           id="DejaVuSans-75"
           d="m 544,1381 v 2119 h 575 V 1403 q 0,-497 193,-746 194,-248 582,-248 465,0 735,297 271,297 271,810 v 1984 h 575 V 0 H 2900 V 538 Q 2691,219 2414,64 2138,-91 1772,-91 1169,-91 856,284 544,659 544,1381 Z m 1447,2203 z"
           transform="scale(0.015625)" />
      </defs>
      <path
         id="use1535"
         d="M 9.421875,54.6875 H 18.40625 V 0 H 9.421875 Z m 0,21.296875 H 18.40625 V 64.59375 H 9.421875 Z"
         style="stroke-width:0.015625" />
      <path
         id="use1537"
         d="M 82.673828,33.015625 V 0 h -8.984375 v 32.71875 q 0,7.765625 -3.03125,11.609375 -3.03125,3.859375 -9.078125,3.859375 -7.28125,0 -11.484375,-4.640625 -4.203125,-4.625 -4.203125,-12.640625 V 0 h -9.03125 v 54.6875 h 9.03125 v -8.5 q 3.234375,4.9375 7.59375,7.375 4.375,2.4375 10.09375,2.4375 9.421875,0 14.25,-5.828125 4.84375,-5.828125 4.84375,-17.15625 z"
         style="stroke-width:0.015625" />
      <use
         xlink:href="#DejaVuSans-70"
         x="91.162109"
         id="use1539"
         y="0"
         width="100%"
         height="100%" />
      <use
         xlink:href="#DejaVuSans-75"
         x="154.63867"
         id="use1541"
         y="0"
         width="100%"
         height="100%" />
      <use
         xlink:href="#DejaVuSans-74"
         x="218.01758"
         id="use1543"
         y="0"
         width="100%"
         height="100%" />
      <use
         xlink:href="#DejaVuSans-20"
         x="257.22656"
         id="use1545"
         y="0"
         width="100%"
         height="100%" />
      <path
         id="use1547"
         d="M 343.9043,33.015625 V 0 h -8.98438 v 32.71875 q 0,7.765625 -3.03125,11.609375 -3.03125,3.859375 -9.07812,3.859375 -7.28125,0 -11.48438,-4.640625 -4.20312,-4.625 -4.20312,-12.640625 V 0 h -9.03125 v 54.6875 h 9.03125 v -8.5 q 3.23437,4.9375 7.59375,7.375 4.375,2.4375 10.09375,2.4375 9.42187,0 14.25,-5.828125 4.84375,-5.828125 4.84375,-17.15625 z"
         style="stroke-width:0.015625" />
      <use
         xlink:href="#DejaVuSans-6f"
         x="352.39258"
         id="use1549"
         y="0"
         width="100%"
         height="100%" />
      <path
         id="use1551"
         d="m 422.99609,54.6875 h 8.98438 V 0 h -8.98438 z m 0,21.296875 h 8.98438 V 64.59375 h -8.98438 z"
         style="stroke-width:0.015625" />
      <use
         xlink:href="#DejaVuSans-73"
         x="441.35742"
         id="use1553"
         y="0"
         width="100%"
         height="100%" />
      <use
         xlink:href="#DejaVuSans-65"
         x="493.45703"
         id="use1555"
         y="0"
         width="100%"
         height="100%" />
      <use
         xlink:href="#DejaVuSans-20"
         x="554.98047"
         id="use1557"
         y="0"
         width="100%"
         height="100%" />
      <use
         xlink:href="#DejaVuSans-73"
         x="586.76758"
         id="use1559"
         y="0"
         width="100%"
         height="100%" />
      <use
         xlink:href="#DejaVuSans-74"
         x="638.86719"
         id="use1561"
         y="0"
         width="100%"
         height="100%" />
      <use
         xlink:href="#DejaVuSans-64"
         x="678.07617"
         id="use1563"
         y="0"
         width="100%"
         height="100%" />
    </g>
  </g>
  <g
     id="ytick_6"
     transform="translate(-21.558749,-30.764544)">
    <g
       id="line2d_26">
      <g
         id="g1571">
        <use
           xlink:href="#m499e278b55"
           x="58.139999"
           y="255.03841"
           style="stroke:#000000;stroke-width:0.8"
           id="use1569"
           width="100%"
           height="100%" />
      </g>
    </g>
    <g
       id="text_25">
      <!-- 4.0 -->
      <g
         transform="matrix(0.1,0,0,-0.1,35.236875,258.83762)"
         id="g1583">
        <defs
           id="defs1575">
          <path
             id="DejaVuSans-34"
             d="M 2419,4116 825,1625 h 1594 z m -166,550 h 794 V 1625 h 666 V 1100 H 3047 V 0 H 2419 V 1100 H 313 v 609 z"
             transform="scale(0.015625)" />
        </defs>
        <use
           xlink:href="#DejaVuSans-34"
           id="use1577"
           x="0"
           y="0"
           width="100%"
           height="100%" />
        <use
           xlink:href="#DejaVuSans-2e"
           x="63.623047"
           id="use1579"
           y="0"
           width="100%"
           height="100%" />
        <use
           xlink:href="#DejaVuSans-30"
           x="95.410156"
           id="use1581"
           y="0"
           width="100%"
           height="100%" />
      </g>
    </g>
  </g>
  <g
     id="ytick_7"
     transform="translate(-21.558749,-30.764544)">
    <g
       id="line2d_27">
      <g
         id="g1589">
        <use
           xlink:href="#m499e278b55"
           x="58.139999"
           y="229.9644"
           style="stroke:#000000;stroke-width:0.8"
           id="use1587"
           width="100%"
           height="100%" />
      </g>
    </g>
    <g
       id="text_26">
      <!-- 4.5 -->
      <g
         transform="matrix(0.1,0,0,-0.1,35.236875,233.76362)"
         id="g1598">
        <use
           xlink:href="#DejaVuSans-34"
           id="use1592"
           x="0"
           y="0"
           width="100%"
           height="100%" />
        <use
           xlink:href="#DejaVuSans-2e"
           x="63.623047"
           id="use1594"
           y="0"
           width="100%"
           height="100%" />
        <use
           xlink:href="#DejaVuSans-35"
           x="95.410156"
           id="use1596"
           y="0"
           width="100%"
           height="100%" />
      </g>
    </g>
  </g>
  <g
     id="ytick_8"
     transform="translate(-21.558749,-30.764544)">
    <g
       id="line2d_28">
      <g
         id="g1604">
        <use
           xlink:href="#m499e278b55"
           x="58.139999"
           y="204.8904"
           style="stroke:#000000;stroke-width:0.8"
           id="use1602"
           width="100%"
           height="100%" />
      </g>
    </g>
    <g
       id="text_27">
      <!-- 5.0 -->
      <g
         transform="matrix(0.1,0,0,-0.1,35.236875,208.68962)"
         id="g1613">
        <use
           xlink:href="#DejaVuSans-35"
           id="use1607"
           x="0"
           y="0"
           width="100%"
           height="100%" />
        <use
           xlink:href="#DejaVuSans-2e"
           x="63.623047"
           id="use1609"
           y="0"
           width="100%"
           height="100%" />
        <use
           xlink:href="#DejaVuSans-30"
           x="95.410156"
           id="use1611"
           y="0"
           width="100%"
           height="100%" />
      </g>
    </g>
  </g>
  <g
     id="ytick_9"
     transform="translate(-21.558749,-30.764544)">
    <g
       id="line2d_29">
      <g
         id="g1619">
        <use
           xlink:href="#m499e278b55"
           x="58.139999"
           y="179.81641"
           style="stroke:#000000;stroke-width:0.8"
           id="use1617"
           width="100%"
           height="100%" />
      </g>
    </g>
    <g
       id="text_28">
      <!-- 5.5 -->
      <g
         transform="matrix(0.1,0,0,-0.1,35.236875,183.61562)"
         id="g1628">
        <use
           xlink:href="#DejaVuSans-35"
           id="use1622"
           x="0"
           y="0"
           width="100%"
           height="100%" />
        <use
           xlink:href="#DejaVuSans-2e"
           x="63.623047"
           id="use1624"
           y="0"
           width="100%"
           height="100%" />
        <use
           xlink:href="#DejaVuSans-35"
           x="95.410156"
           id="use1626"
           y="0"
           width="100%"
           height="100%" />
      </g>
    </g>
  </g>
  <g
     id="ytick_10"
     transform="translate(-21.558749,-30.764544)">
    <g
       id="line2d_30">
      <g
         id="g1634">
        <use
           xlink:href="#m499e278b55"
           x="58.139999"
           y="154.7424"
           style="stroke:#000000;stroke-width:0.8"
           id="use1632"
           width="100%"
           height="100%" />
      </g>
    </g>
    <g
       id="text_29">
      <!-- 6.0 -->
      <g
         transform="matrix(0.1,0,0,-0.1,35.236875,158.54162)"
         id="g1646">
        <defs
           id="defs1638">
          <path
             id="DejaVuSans-36"
             d="m 2113,2584 q -425,0 -674,-291 -248,-290 -248,-796 0,-503 248,-796 249,-292 674,-292 425,0 673,292 248,293 248,796 0,506 -248,796 -248,291 -673,291 z m 1253,1979 v -575 q -238,112 -480,171 -242,60 -480,60 -625,0 -955,-422 -329,-422 -376,-1275 184,272 462,417 279,145 613,145 703,0 1111,-427 408,-426 408,-1160 0,-719 -425,-1154 -425,-434 -1131,-434 -810,0 -1238,620 -428,621 -428,1799 0,1106 525,1764 525,658 1409,658 238,0 480,-47 242,-47 505,-140 z"
             transform="scale(0.015625)" />
        </defs>
        <use
           xlink:href="#DejaVuSans-36"
           id="use1640"
           x="0"
           y="0"
           width="100%"
           height="100%" />
        <use
           xlink:href="#DejaVuSans-2e"
           x="63.623047"
           id="use1642"
           y="0"
           width="100%"
           height="100%" />
        <use
           xlink:href="#DejaVuSans-30"
           x="95.410156"
           id="use1644"
           y="0"
           width="100%"
           height="100%" />
      </g>
    </g>
  </g>
  <g
     id="text_30"
     transform="translate(-21.558749,-30.764544)">
    <!-- rot error -->
    <g
       transform="matrix(0,-0.1,-0.1,0,29.157187,225.54431)"
       id="g1668">
      <use
         xlink:href="#DejaVuSans-72"
         id="use1650"
         x="0"
         y="0"
         width="100%"
         height="100%" />
      <use
         xlink:href="#DejaVuSans-6f"
         x="38.863281"
         id="use1652"
         y="0"
         width="100%"
         height="100%" />
      <use
         xlink:href="#DejaVuSans-74"
         x="100.04492"
         id="use1654"
         y="0"
         width="100%"
         height="100%" />
      <use
         xlink:href="#DejaVuSans-20"
         x="139.25391"
         id="use1656"
         y="0"
         width="100%"
         height="100%" />
      <use
         xlink:href="#DejaVuSans-65"
         x="171.04102"
         id="use1658"
         y="0"
         width="100%"
         height="100%" />
      <use
         xlink:href="#DejaVuSans-72"
         x="232.56445"
         id="use1660"
         y="0"
         width="100%"
         height="100%" />
      <use
         xlink:href="#DejaVuSans-72"
         x="271.92773"
         id="use1662"
         y="0"
         width="100%"
         height="100%" />
      <use
         xlink:href="#DejaVuSans-6f"
         x="310.79102"
         id="use1664"
         y="0"
         width="100%"
         height="100%" />
      <use
         xlink:href="#DejaVuSans-72"
         x="371.97266"
         id="use1666"
         y="0"
         width="100%"
         height="100%" />
    </g>
  </g>
  <path
     d="m 69.404625,208.44288 78.852375,0.86541 90.117,-1.5632 180.234,-8.18532"
     clip-path="url(#pe8d6036e8e)"
     style="fill:none;stroke:#1f77b4;stroke-width:1.5;stroke-linecap:square"
     id="path1672"
     transform="translate(-21.558749,-30.764544)" />
  <path
     d="m 69.404625,191.64801 78.852375,0.0827 90.117,-1.58209 180.234,-6.87504"
     clip-path="url(#pe8d6036e8e)"
     style="fill:none;stroke:#ff7f0e;stroke-width:1.5;stroke-linecap:square"
     id="path1675"
     transform="translate(-21.558749,-30.764544)" />
  <path
     d="m 69.404625,193.20901 78.852375,0.22205 90.117,-1.06554 180.234,-4.9223"
     clip-path="url(#pe8d6036e8e)"
     style="fill:none;stroke:#2ca02c;stroke-width:1.5;stroke-linecap:square"
     id="path1678"
     transform="translate(-21.558749,-30.764544)" />
  <path
     d="m 36.58125,224.27386 v -100.296"
     style="fill:none;stroke:#000000;stroke-width:0.8;stroke-linecap:square;stroke-linejoin:miter"
     id="path1681" />
  <path
     d="m 397.04925,224.27386 v -100.296"
     style="fill:none;stroke:#000000;stroke-width:0.8;stroke-linecap:square;stroke-linejoin:miter"
     id="path1684" />
  <path
     d="m 36.58125,224.27386 h 360.468"
     style="fill:none;stroke:#000000;stroke-width:0.8;stroke-linecap:square;stroke-linejoin:miter"
     id="path1687" />
  <path
     d="m 36.58125,123.97786 h 360.468"
     style="fill:none;stroke:#000000;stroke-width:0.8;stroke-linecap:square;stroke-linejoin:miter"
     id="path1690" />
  <defs
     id="defs1701">
    <clipPath
       id="p4e88df2e3f">
      <rect
         x="58.139999"
         y="34.387199"
         width="360.46799"
         height="100.296"
         id="rect1695" />
    </clipPath>
    <clipPath
       id="pe8d6036e8e">
      <rect
         x="58.139999"
         y="154.7424"
         width="360.46799"
         height="100.296"
         id="rect1698" />
    </clipPath>
  </defs>
  <text
     xml:space="preserve"
     style="font-size:10px;line-height:1.25;font-family:sans-serif;stroke-width:0.75"
     x="74.309227"
     y="35.68095"
     id="text26540"><tspan
       sodipodi:role="line"
       id="tspan26538"
       style="font-size:10px;stroke-width:0.75"
       x="74.309227"
       y="35.68095">resnet18</tspan></text>
  <text
     xml:space="preserve"
     style="font-size:10px;line-height:1.25;font-family:sans-serif;stroke-width:0.75"
     x="73.485435"
     y="20.329638"
     id="text32484"><tspan
       sodipodi:role="line"
       id="tspan32482"
       style="font-size:10px;stroke-width:0.75"
       x="73.485435"
       y="20.329638">mobilenet1</tspan></text>
</svg>
